<svg xmlns="http://www.w3.org/2000/svg" xmlns:xlink="http://www.w3.org/1999/xlink" width="255.948" height="364.328" viewBox="0 0 191.961 273.246"><defs><symbol overflow="visible" id="b"><path d="M13.094-272.063v4.875h8.234V-4.483h-8.234V0h100.672c13.093 0 25.812-3 37.796-8.234 11.594-5.61 21.329-13.094 29.938-22.453 14.594-16.844 22.828-38.547 22.828-60.626 0-22.453-8.234-43.78-22.828-60.624-3.75-4.11-7.86-8.235-12.36-11.594 8.235-11.61 12.735-25.453 12.735-39.672 0-18.703-7.11-35.922-20.219-49.016-12.719-12.734-30.312-19.844-49.015-19.844zM113.766-4.483H48.28v-217.422c3.735 8.969 8.969 16.828 15.703 23.937 13.11 12.735 30.313 19.844 48.657 19.844h1.125c8.984 0 17.953 2.25 26.187 5.984 7.86 3.75 14.969 8.61 20.953 15.344 10.11 11.594 16.094 26.563 16.469 41.906v46.782c-.375 16.843-7.11 32.562-19.078 44.53-11.984 11.985-27.688 18.72-44.531 19.095zm51.64-162.047C150.062-177 132.47-183 113.766-183h-1.5c-16.844 0-32.938-6.734-44.907-18.703-11.968-11.969-18.718-27.688-19.078-44.906v-20.578h64.36c17.218 0 33.296 6.359 45.656 18.703C170.266-236.5 177-220.422 177-203.204c0 13.095-4.11 25.829-11.594 36.673zm0 0"/></symbol><clipPath id="a"><path d="M0 0h191.96v273H0zm0 0"/></clipPath></defs><g clip-path="url(#a)"><use xlink:href="#b" x="-12.764" y="272.848"/></g><path d="M151.281 108.695c-5.035 5.684-9.379 11.985-13.867 18.094-6.043 8.23-11.851 15.89-18.57 23.652-7.688 8.887-16.016 17.239-25.172 24.618-9.996 8.054-21.067 14.882-32.899 19.894-13.265 5.625-27.503 8.895-41.87 9.817-1.981.125-3.962.207-5.946.253-2.89.07-2.902 4.57 0 4.5 15.137-.359 30.215-3.058 44.402-8.39 12.434-4.68 24.09-11.207 34.711-19.172 9.778-7.34 18.688-15.742 26.86-24.828 7.086-7.875 13.601-16.23 19.91-24.735 2.617-3.53 5.195-7.09 7.812-10.625 1.13-1.523 2.27-3.039 3.426-4.546.246-.32-.012.011-.05.066l.199-.258c.132-.172.265-.34.398-.508a108.768 108.768 0 0 1 2.387-2.96c.476-.57.96-1.133 1.453-1.688 1.914-2.16-1.258-5.356-3.184-3.184"/></svg>